<?xml version="1.0" standalone="no"?>
<!DOCTYPE svg PUBLIC "-//W3C//DTD SVG 20010904//EN"
 "http://www.w3.org/TR/2001/REC-SVG-20010904/DTD/svg10.dtd">
<svg version="1.0" xmlns="http://www.w3.org/2000/svg"
 width="64.000000pt" height="64.000000pt" viewBox="0 0 64.000000 64.000000"
 preserveAspectRatio="xMidYMid meet">

<g transform="translate(0.000000,64.000000) scale(0.100000,-0.100000)"
fill="#000000" stroke="none">
<path d="M288 590 c-12 -18 -24 -20 -119 -20 -85 0 -109 -3 -120 -16 -10 -12
-10 -20 -1 -35 8 -12 12 -75 12 -192 0 -121 4 -177 12 -185 8 -8 46 -12 105
-12 51 0 93 -2 93 -6 0 -3 -11 -22 -25 -42 -26 -39 -31 -52 -16 -52 4 0 23 24
42 53 l34 52 3 -37 c4 -49 20 -49 24 0 l3 37 34 -52 c19 -29 38 -53 42 -53 15
0 10 13 -16 52 -14 20 -25 39 -25 42 0 4 42 6 93 6 59 0 97 4 105 12 8 8 12
64 12 185 0 117 4 180 12 192 9 15 9 23 -1 35 -11 13 -35 16 -120 16 -95 0
-107 2 -119 20 -7 11 -21 20 -32 20 -11 0 -25 -9 -32 -20z m47 -10 c3 -5 -3
-10 -15 -10 -12 0 -18 5 -15 10 3 6 10 10 15 10 5 0 12 -4 15 -10z m245 -45
c0 -13 -27 -15 -180 -15 -113 0 -180 -4 -180 -10 0 -6 63 -10 170 -10 l170 0
-2 -172 -3 -173 -235 0 -235 0 -3 173 c-2 167 -2 172 18 172 11 0 20 5 20 10
0 6 -13 10 -30 10 -20 0 -30 5 -30 15 0 13 36 15 260 15 224 0 260 -2 260 -15z"/>
<path d="M140 510 c0 -5 14 -10 30 -10 17 0 30 5 30 10 0 6 -13 10 -30 10 -16
0 -30 -4 -30 -10z"/>
<path d="M360 430 c0 -29 -1 -30 -50 -30 -47 0 -50 -2 -50 -25 0 -23 -3 -25
-50 -25 l-50 0 0 -40 c0 -36 -2 -40 -25 -40 -14 0 -25 -4 -25 -10 0 -6 77 -10
210 -10 133 0 210 4 210 10 0 6 -11 10 -25 10 -25 0 -25 0 -25 95 l0 95 -60 0
-60 0 0 -30z m100 -75 l0 -85 -40 0 -40 0 0 85 0 85 40 0 40 0 0 -85z m-100
-30 l0 -55 -40 0 -40 0 0 55 0 55 40 0 40 0 0 -55z m-100 -25 c0 -28 -2 -30
-40 -30 -38 0 -40 2 -40 30 0 28 2 30 40 30 38 0 40 -2 40 -30z"/>
<path d="M110 190 c0 -11 5 -20 10 -20 6 0 10 9 10 20 0 11 -4 20 -10 20 -5 0
-10 -9 -10 -20z"/>
<path d="M160 190 c0 -11 5 -20 10 -20 6 0 10 9 10 20 0 11 -4 20 -10 20 -5 0
-10 -9 -10 -20z"/>
<path d="M210 190 c0 -11 5 -20 10 -20 6 0 10 9 10 20 0 11 -4 20 -10 20 -5 0
-10 -9 -10 -20z"/>
<path d="M260 190 c0 -11 5 -20 10 -20 6 0 10 9 10 20 0 11 -4 20 -10 20 -5 0
-10 -9 -10 -20z"/>
<path d="M310 190 c0 -11 5 -20 10 -20 6 0 10 9 10 20 0 11 -4 20 -10 20 -5 0
-10 -9 -10 -20z"/>
<path d="M360 190 c0 -11 5 -20 10 -20 6 0 10 9 10 20 0 11 -4 20 -10 20 -5 0
-10 -9 -10 -20z"/>
<path d="M410 190 c0 -11 5 -20 10 -20 6 0 10 9 10 20 0 11 -4 20 -10 20 -5 0
-10 -9 -10 -20z"/>
<path d="M460 190 c0 -11 5 -20 10 -20 6 0 10 9 10 20 0 11 -4 20 -10 20 -5 0
-10 -9 -10 -20z"/>
<path d="M510 190 c0 -11 5 -20 10 -20 6 0 10 9 10 20 0 11 -4 20 -10 20 -5 0
-10 -9 -10 -20z"/>
</g>
</svg>
