<?xml version="1.0" standalone="no"?>
<!DOCTYPE svg PUBLIC "-//W3C//DTD SVG 20010904//EN"
 "http://www.w3.org/TR/2001/REC-SVG-20010904/DTD/svg10.dtd">
<svg version="1.0" xmlns="http://www.w3.org/2000/svg"
 width="80.000000pt" height="80.000000pt" viewBox="0 0 80.000000 80.000000"
 preserveAspectRatio="xMidYMid meet">

<g transform="translate(0.000000,80.000000) scale(0.100000,-0.100000)"
fill="#000000" stroke="none">
<path d="M331 700 c-13 -6 -35 -18 -50 -28 -14 -10 -44 -24 -67 -30 -22 -6
-58 -27 -80 -46 -38 -33 -38 -34 -22 -53 12 -13 18 -36 18 -69 0 -34 9 -66 30
-108 17 -32 30 -60 30 -62 0 -2 -27 -17 -59 -34 -68 -34 -91 -61 -91 -107 0
-33 0 -33 50 -33 43 0 50 -3 50 -20 0 -19 7 -20 260 -20 253 0 260 1 260 20 0
17 7 20 50 20 l50 0 0 35 c0 43 -27 73 -98 109 -49 25 -74 46 -53 46 5 0 21
24 35 54 20 42 26 71 26 121 0 36 -4 75 -10 85 -13 24 -62 52 -130 74 -30 10
-63 25 -72 33 -21 19 -95 26 -127 13z m112 -30 c14 -11 30 -20 37 -20 6 0 22
-11 35 -25 20 -19 25 -34 25 -72 l-1 -48 -14 40 c-16 45 -42 69 -65 59 -16 -7
-65 -20 -114 -29 -16 -4 -42 -20 -58 -37 l-28 -30 0 34 c0 19 -5 39 -12 46
-25 25 77 101 138 102 17 0 43 -9 57 -20z m197 -100 c6 -10 10 -27 10 -37 0
-13 -6 -8 -20 15 -23 37 -27 38 -52 15 -17 -15 -18 -15 -18 3 0 10 -3 29 -6
42 l-7 23 42 -22 c23 -12 46 -29 51 -39z m-425 40 c-3 -6 1 -17 9 -26 22 -22
20 -44 -4 -44 -12 0 -31 -10 -44 -23 l-22 -23 -11 35 c-13 41 -11 46 31 72 34
21 51 24 41 9z m295 -106 c0 -34 3 -42 15 -38 10 4 15 0 15 -10 0 -9 -6 -19
-14 -22 -8 -3 -17 -20 -20 -38 -12 -64 -84 -106 -140 -82 -39 16 -76 60 -76
91 0 13 -7 25 -15 29 -8 3 -15 13 -15 22 0 10 5 14 15 10 11 -4 15 2 15 20 0
38 42 74 87 74 21 1 52 7 68 14 27 13 32 12 48 -6 10 -13 17 -37 17 -64z m110
27 c5 -11 10 -35 10 -55 0 -19 6 -37 13 -40 10 -5 10 -7 0 -12 -7 -3 -13 -15
-13 -25 0 -31 -18 -57 -50 -74 -33 -17 -49 -18 -69 -6 -11 7 -8 21 18 72 22
45 30 71 26 91 -5 19 -1 32 14 47 26 26 37 26 51 2z m-377 -46 c-2 -17 10 -57
28 -94 25 -51 29 -65 18 -72 -20 -12 -36 -11 -69 6 -32 17 -50 43 -50 74 0 10
-6 22 -12 25 -10 5 -10 7 0 12 6 3 12 16 12 29 0 26 36 57 60 52 10 -2 14 -13
13 -32z m62 -195 c-24 -26 -53 -34 -70 -20 -22 18 -18 31 8 25 12 -3 34 -2 47
4 35 14 35 13 15 -9z m252 5 c26 6 30 -6 8 -25 -17 -14 -46 -6 -71 21 -18 20
-18 20 11 9 16 -6 40 -9 52 -5z m-157 -9 c14 0 34 4 44 9 20 8 20 8 0 -26 -27
-46 -61 -46 -88 0 -20 34 -20 34 0 26 10 -5 30 -9 44 -9z m-183 -24 c9 -15 7
-21 -8 -31 -23 -14 -39 -7 -39 18 0 35 28 42 47 13z m411 -6 c6 -27 -12 -40
-36 -25 -16 10 -18 16 -8 31 14 23 40 19 44 -6z m-273 -23 c17 -26 25 -51 25
-80 0 -42 -1 -43 -34 -43 -44 0 -71 32 -53 61 9 14 9 21 -1 31 -17 17 -15 39
6 54 25 19 29 18 57 -23z m148 23 c20 -15 22 -37 5 -54 -10 -10 -10 -17 -1
-31 18 -29 -9 -61 -53 -61 -33 0 -34 1 -34 43 0 29 8 54 25 80 28 41 32 42 58
23z m-347 -31 c9 -19 9 -27 -2 -36 -8 -6 -14 -18 -14 -25 0 -10 -13 -14 -40
-14 -36 0 -40 3 -40 24 0 16 12 34 33 50 40 32 49 32 63 1z m545 2 c22 -15 35
-32 37 -50 3 -25 1 -27 -37 -27 -28 0 -41 4 -41 14 0 7 -6 19 -14 25 -11 9
-11 17 -2 36 14 30 15 30 57 2z m-435 -21 c8 -18 8 -28 0 -36 -7 -7 -7 -16 2
-30 6 -11 12 -22 12 -25 0 -3 -27 -5 -60 -5 -59 0 -60 0 -60 28 0 28 24 58 65
80 27 15 28 15 41 -12z m307 13 c42 -22 67 -52 67 -81 0 -28 -1 -28 -60 -28
-33 0 -60 2 -60 5 0 3 6 14 12 25 9 14 9 23 2 30 -8 8 -8 18 0 36 13 28 11 27
39 13z"/>
<path d="M330 455 c0 -8 7 -15 15 -15 8 0 15 7 15 15 0 8 -7 15 -15 15 -8 0
-15 -7 -15 -15z"/>
<path d="M440 455 c0 -8 7 -15 15 -15 8 0 15 7 15 15 0 8 -7 15 -15 15 -8 0
-15 -7 -15 -15z"/>
<path d="M570 435 c0 -8 7 -15 15 -15 8 0 15 7 15 15 0 8 -7 15 -15 15 -8 0
-15 -7 -15 -15z"/>
<path d="M200 435 c0 -8 7 -15 15 -15 8 0 15 7 15 15 0 8 -7 15 -15 15 -8 0
-15 -7 -15 -15z"/>
</g>
</svg>
