<?xml version="1.0" standalone="no"?>
<!DOCTYPE svg PUBLIC "-//W3C//DTD SVG 20010904//EN"
 "http://www.w3.org/TR/2001/REC-SVG-20010904/DTD/svg10.dtd">
<svg version="1.0" xmlns="http://www.w3.org/2000/svg"
 width="64.000000pt" height="64.000000pt" viewBox="0 0 64.000000 64.000000"
 preserveAspectRatio="xMidYMid meet">

<g transform="translate(0.000000,64.000000) scale(0.100000,-0.100000)"
fill="#000000" stroke="none">
<path d="M271 601 c-6 -11 -11 -26 -11 -33 0 -8 -6 -23 -14 -34 -14 -19 -15
-19 -60 6 l-46 25 -32 -33 -33 -32 25 -45 c28 -51 24 -58 -35 -77 -39 -13 -40
-14 -40 -58 0 -44 1 -45 40 -58 59 -19 63 -26 35 -77 l-25 -45 33 -32 32 -33
45 25 c51 28 58 24 77 -35 13 -39 14 -40 58 -40 44 0 45 1 58 40 19 59 26 63
77 35 l45 -25 32 33 33 32 -25 45 c-28 51 -24 58 35 77 39 13 40 14 40 58 0
44 -1 45 -40 58 -59 19 -63 26 -35 77 l25 45 -33 32 -32 33 -45 -25 c-51 -28
-58 -24 -77 35 -12 37 -16 40 -55 43 -33 2 -44 -1 -52 -17z m92 -41 c17 -65
41 -75 100 -40 l34 20 21 -23 21 -23 -19 -32 c-35 -57 -25 -82 40 -99 31 -8
35 -13 35 -43 0 -30 -4 -35 -35 -43 -65 -17 -75 -41 -40 -100 l20 -34 -23 -21
-23 -21 -32 19 c-57 35 -82 25 -99 -40 -8 -31 -13 -35 -43 -35 -30 0 -35 4
-43 35 -17 65 -42 75 -99 40 l-32 -19 -23 21 -23 21 20 34 c35 59 25 83 -40
100 -31 8 -35 13 -35 43 0 30 4 35 35 43 65 17 75 41 40 100 l-20 34 23 21 23
21 32 -19 c56 -34 83 -24 98 35 10 44 13 46 47 43 26 -3 32 -9 40 -38z"/>
<path d="M252 440 c-61 -37 -89 -118 -61 -173 18 -34 51 -67 68 -67 10 0 3 12
-20 36 -29 30 -34 42 -34 84 0 40 5 54 29 79 17 17 35 31 42 31 16 0 27 17 16
24 -5 3 -23 -4 -40 -14z"/>
<path d="M330 451 c0 -11 26 -22 34 -14 3 3 3 10 0 14 -7 12 -34 11 -34 0z"/>
<path d="M395 409 c-4 -6 -5 -13 -2 -16 7 -7 27 6 27 18 0 12 -17 12 -25 -2z"/>
<path d="M265 375 c-50 -49 -15 -135 55 -135 41 0 80 39 80 80 0 19 -9 40 -25
55 -15 16 -36 25 -55 25 -19 0 -40 -9 -55 -25z m95 -15 c11 -11 20 -29 20 -40
0 -26 -34 -60 -60 -60 -26 0 -60 34 -60 60 0 11 9 29 20 40 11 11 29 20 40 20
11 0 29 -9 40 -20z"/>
<path d="M304 329 c-10 -17 13 -36 27 -22 12 12 4 33 -11 33 -5 0 -12 -5 -16
-11z"/>
<path d="M417 374 c-4 -4 -4 -10 -1 -15 6 -10 34 0 34 12 0 10 -24 12 -33 3z"/>
<path d="M420 320 c0 -5 9 -10 20 -10 11 0 20 5 20 10 0 6 -9 10 -20 10 -11 0
-20 -4 -20 -10z"/>
<path d="M415 280 c-4 -6 -4 -10 -1 -10 2 0 11 -3 20 -6 9 -3 16 -2 16 4 0 14
-28 23 -35 12z"/>
<path d="M392 239 c2 -7 10 -15 17 -17 8 -3 12 1 9 9 -2 7 -10 15 -17 17 -8 3
-12 -1 -9 -9z"/>
<path d="M357 224 c-8 -8 3 -34 14 -34 11 0 12 27 0 34 -4 3 -11 3 -14 0z"/>
<path d="M310 200 c0 -11 5 -20 10 -20 6 0 10 9 10 20 0 11 -4 20 -10 20 -5 0
-10 -9 -10 -20z"/>
</g>
</svg>
